<svg role="img" viewBox="0 0 24 24" xmlns="http://www.w3.org/2000/svg"><title>Spotify</title><path d="M12 0C5.373 0 0 5.373 0 12s5.373 12 12 12 12-5.373 12-12S18.627 0 12 0zm5.78 17.396c-.276.41-1.03.536-1.442.258-3.34-2.046-7.52-2.49-12.48-1.373-.496.11-1.03-.18-1.14-.675-.11-.494.18-1.03.676-1.14C9.39 12.37 13.97 12.86 17.73 15.15c.41.278.536 1.03.26 1.44zm1.44-3.11c-.33.494-1.214.65-1.708.32-3.83-2.34-9.5-3.016-14.04-1.65-.588.163-1.214-.136-1.378-.72-.164-.588.136-1.214.72-1.378C9.53 9.32 15.68 10.05 20.01 12.7c.494.33.65 1.214.32 1.71zm.136-3.243C15.54 8.14 9.01 7.91 5.14 9.07c-.69.207-1.44-.19-1.65-.875-.205-.688.19-1.44.877-1.65C9.28 5.02 16.51 5.27 20.7 8.35c.6.42.76 1.34.34 1.94s-1.34.76-1.94.34z" fill="#1DB954"/></svg>
